<?xml version="1.0" encoding="UTF-8"?>
<svg width="200px" height="200px" viewBox="0 0 200 200" version="1.1" xmlns="http://www.w3.org/2000/svg">
    <g stroke="none" stroke-width="1" fill="none" fill-rule="evenodd">
        <circle fill="#F8F9FA" cx="100" cy="100" r="100"></circle>
        <g transform="translate(35, 40)">
            <!-- Document -->
            <rect fill="#E9ECEF" x="0" y="0" width="130" height="120" rx="8"></rect>
            <rect fill="#FFFFFF" x="10" y="10" width="110" height="100" rx="4"></rect>
            
            <!-- Stars -->
            <g transform="translate(20, 30)" fill="#DEE2E6">
                <polygon points="10,0 13,6 20,7 15,12 16,19 10,16 4,19 5,12 0,7 7,6"></polygon>
                <polygon transform="translate(25, 0)" points="10,0 13,6 20,7 15,12 16,19 10,16 4,19 5,12 0,7 7,6"></polygon>
                <polygon transform="translate(50, 0)" points="10,0 13,6 20,7 15,12 16,19 10,16 4,19 5,12 0,7 7,6"></polygon>
                <polygon transform="translate(75, 0)" points="10,0 13,6 20,7 15,12 16,19 10,16 4,19 5,12 0,7 7,6"></polygon>
            </g>
            
            <!-- Lines -->
            <rect fill="#DEE2E6" x="20" y="60" width="90" height="4" rx="2"></rect>
            <rect fill="#DEE2E6" x="20" y="70" width="70" height="4" rx="2"></rect>
            <rect fill="#DEE2E6" x="20" y="80" width="50" height="4" rx="2"></rect>
        </g>
        
        <!-- Slash -->
        <line x1="40" y1="160" x2="160" y2="40" stroke="#DC3545" stroke-width="6" stroke-linecap="round"></line>
    </g>
</svg> 