<?xml version="1.0" encoding="UTF-8"?>
<svg width="600" height="400" viewBox="0 0 600 400" xmlns="http://www.w3.org/2000/svg">
    <!-- Background -->
    <rect width="600" height="400" fill="#f0f9ff"/>
    
    <!-- Doctor Figure -->
    <g transform="translate(200,50)">
        <!-- Head -->
        <circle cx="100" cy="80" r="60" fill="#2563eb"/>
        <!-- Body -->
        <path d="M60,140 L140,140 L160,340 L40,340 Z" fill="#2563eb"/>
        <!-- Stethoscope -->
        <path d="M80,160 C60,180 40,200 40,220 C40,240 60,250 80,240 C100,230 120,240 140,220" 
              fill="none" stroke="#1e40af" stroke-width="8"/>
        <circle cx="40" cy="220" r="12" fill="#1e40af"/>
    </g>
    
    <!-- Medical Symbols -->
    <g transform="translate(0,0)" fill="#2563eb" opacity="0.1">
        <path d="M40,20 L60,20 L60,40 L80,40 L80,60 L60,60 L60,80 L40,80 L40,60 L20,60 L20,40 L40,40 Z"/>
        <path d="M520,320 L540,320 L540,340 L560,340 L560,360 L540,360 L540,380 L520,380 L520,360 L500,360 L500,340 L520,340 Z"/>
    </g>
</svg> 